#!OML:ASF H:\Terrain\Patient Classification 1\Terrain2\Thursday\justin.ASF
:FULLY-SPECIFIED
:DEGREES
3196
root 10.2212 18.2832 -11.2438 -212.08 -63.7744 -153.44
lowerback 2.47364 2.29906 17.0299
upperback 1.41879 3.00202 5.4051
thorax 0.75025 1.433 -3.78808
lowerneck -7.62664 4.20388 -7.66809
upperneck 40.7129 5.29551 0.516486
head 15.3653 0.199627 2.08875
rclavicle 4.96962e-016 -5.40694e-014
rhumerus -37.1604 -6.83353 -77.605
rradius 25.2065
rwrist -6.43483
rhand -20.077 12.9007
rfingers 7.12502
rthumb 6.26548 -16.9867
lclavicle 4.96962e-016 -5.40694e-014
lhumerus -53.0317 13.9486 72.4899
lradius 25.1345
lwrist 2.29367
lhand -18.5817 22.1886
lfingers 7.12502
lthumb 7.70892 52.028
rfemur 47.9359 9.07369 31.5621
rtibia -5.08889e-014
rfoot -15.0639 11.034
rtoes 2.24741
lfemur -48.1004 16.2976 -0.991067
ltibia 44.6847
lfoot 34.064 2.45659
ltoes 20.5575
3197
root 10.0485 18.2255 -11.2281 -212.744 -63.4925 -152.169
lowerback 2.63021 2.24121 17.4091
upperback 1.35465 2.95163 5.62026
thorax 0.595965 1.38355 -3.76842
lowerneck -7.85638 4.24999 -7.83479
upperneck 40.5218 5.463 0.520745
head 15.3077 0.267644 2.1489
rclavicle -8.54774e-015 -2.14687e-014
rhumerus -37.0923 -6.33786 -77.8005
rradius 25.2294
rwrist -6.60505
rhand -20.3161 12.9968
rfingers 7.12502
rthumb 6.0346 -16.8972
lclavicle -8.54774e-015 -2.14687e-014
lhumerus -53.1135 13.8474 72.5539
lradius 25.1821
lwrist 3.04809
lhand -18.8658 22.2289
lfingers 7.12502
lthumb 7.4347 52.0783
rfemur 47.9734 9.24396 31.9753
rtibia 4.45278e-014
rfoot -14.6795 11.2293
rtoes 2.46887
lfemur -48.7186 16.4997 -0.664607
ltibia 46.3674
lfoot 31.7032 -0.31667
ltoes 21.4047
3198
root 9.87469 18.1737 -11.2144 -212.916 -63.3328 -151.333
lowerback 2.71554 2.3356 17.6136
upperback 1.25825 3.10281 5.71997
thorax 0.480348 1.44009 -3.77549
lowerneck -7.82648 4.13641 -7.88521
upperneck 40.2058 5.34948 0.462349
head 15.1487 0.237448 2.11587
rclavicle -5.91881e-014 2.8625e-014
rhumerus -37.1235 -6.34068 -77.8232
rradius 25.3271
rwrist -6.52888
rhand -20.3311 12.5341
rfingers 7.12502
rthumb 6.02015 -17.3603
lclavicle -5.91881e-014 2.8625e-014
lhumerus -53.1219 13.8149 72.4913
lradius 25.2009
lwrist 3.21927
lhand -18.8586 22.1091
lfingers 7.12502
lthumb 7.4416 51.9582
rfemur 47.8743 9.45434 32.114
rtibia 1.59028e-014
rfoot -14.255 11.4981
rtoes 3.25952
lfemur -49.3823 16.5329 -0.511263
ltibia 48.1293
lfoot 27.5725 -3.16744
ltoes 18.3279
3199
root 9.70991 18.1135 -11.201 -212.798 -63.3547 -150.856
lowerback 3.00391 2.39095 17.5164
upperback 1.10212 3.26595 5.74904
thorax 0.170877 1.49027 -3.71165
lowerneck -7.81238 4.04824 -7.94292
upperneck 40.0338 5.2135 0.547474
head 15.0594 0.202566 2.14326
rclavicle 1.47598e-014 1.74931e-014
rhumerus -37.2079 -6.39219 -77.915
rradius 25.3837
rwrist -6.63742
rhand -20.3309 12.0869
rfingers 7.12502
rthumb 6.02037 -17.8076
lclavicle 1.47598e-014 1.74931e-014
lhumerus -53.1867 13.8269 72.4078
lradius 25.229
lwrist 3.40122
lhand -18.9168 21.8077
lfingers 7.12502
lthumb 7.38542 51.6587
rfemur 47.8029 9.5876 32.0292
rtibia 5.725e-014
rfoot -13.8455 11.6948
rtoes 4.32012
lfemur -50.0875 16.5048 -0.645013
ltibia 49.8966
lfoot 23.6035 -4.09966
ltoes 17.0181
3200
root 9.55373 18.0433 -11.1827 -212.627 -63.4469 -150.382
lowerback 3.44304 2.39248 17.4772
upperback 0.867613 3.41548 5.64912
thorax -0.301631 1.52349 -3.82573
lowerneck -7.90432 3.99841 -7.7843
upperneck 40.0092 5.10437 0.599159
head 15.0747 0.193235 2.12639
rclavicle -1.07344e-014 -8.74653e-014
rhumerus -37.3577 -6.42025 -78.2504
rradius 25.3918
rwrist -6.9366
rhand -20.4198 11.873
rfingers 7.12502
rthumb 5.93449 -18.0239
lclavicle -1.07344e-014 -8.74653e-014
lhumerus -53.1443 13.4283 72.5825
lradius 25.3438
lwrist 4.22656
lhand -19.5633 21.9795
lfingers 7.12502
lthumb 6.76135 51.8515
rfemur 47.6875 9.66687 31.9039
rtibia 6.36111e-015
rfoot -13.4468 11.8312
rtoes 4.49544
lfemur -51.058 16.6748 -1.06229
ltibia 51.6998
lfoot 20.7038 -5.43401
ltoes 15.0728
3201
root 9.39317 17.9783 -11.1671 -212.768 -63.4961 -149.542
lowerback 3.80089 2.44657 17.6981
upperback 0.659213 3.62003 5.4704
thorax -0.666466 1.59243 -4.15674
lowerneck -7.99131 3.879 -7.4923
upperneck 39.9699 4.83913 0.714041
head 15.0892 0.149401 2.09201
rclavicle 3.16813e-014 -1.19271e-014
rhumerus -37.4917 -7.05955 -78.4625
rradius 25.223
rwrist -6.46361
rhand -20.652 12.2932
rfingers 7.12502
rthumb 5.7103 -17.6099
lclavicle 3.16813e-014 -1.19271e-014
lhumerus -52.9394 12.9874 72.5667
lradius 25.4262
lwrist 4.63424
lhand -19.831 22.4526
lfingers 7.12502
lthumb 6.50301 52.3327
rfemur 47.5459 9.69639 31.9358
rtibia -1.27222e-014
rfoot -12.9875 12.0392
rtoes 4.58632
lfemur -52.2162 16.9461 -1.41295
ltibia 53.5709
lfoot 18.0307 -7.75007
ltoes 7.99263
3202
root 9.22777 17.9254 -11.1551 -213.319 -63.4406 -148.392
lowerback 4.19434 2.4547 17.962
upperback 0.563503 3.74413 5.46559
thorax -0.950834 1.62404 -4.32453
lowerneck -8.12972 3.80752 -7.39147
upperneck 39.9437 4.69069 0.842758
head 15.1111 0.127501 2.11383
rclavicle -1.12562e-014 -3.26007e-014
rhumerus -37.4428 -7.51308 -78.5589
rradius 24.969
rwrist -5.99223
rhand -20.7694 12.9002
rfingers 7.12502
rthumb 5.59696 -17.0058
lclavicle -1.12562e-014 -3.26007e-014
lhumerus -52.7707 13.5747 71.8806
lradius 25.1841
lwrist 3.8852
lhand -19.3356 22.4101
lfingers 7.12502
lthumb 6.98122 52.2749
rfemur 47.4975 9.70336 32.1668
rtibia -1.01778e-013
rfoot -12.476 12.2169
rtoes 4.65947
lfemur -53.3164 17.1109 -1.38989
ltibia 55.4914
lfoot 15.7525 -8.97207
ltoes 3.81531
